               <svg version="1.0" xmlns="http://www.w3.org/2000/svg"
                    className="w-8 h-8 mr-4" viewBox="0 0 512.000000 512.000000"
                    preserveAspectRatio="xMidYMid meet">

                    <g transform="translate(0.000000,512.000000) scale(0.100000,-0.100000)"
                      fill="#ffffff" stroke="none">
                      <path d="M2424 4755 c-192 -42 -324 -176 -393 -400 -51 -163 -66 -455 -32
-621 29 -141 84 -249 170 -333 l71 -69 0 -121 c0 -89 -3 -122 -12 -125 -7 -2
-51 -12 -98 -23 -177 -43 -330 -117 -422 -205 l-49 -48 -52 14 c-29 8 -64 17
-79 20 l-28 6 0 129 0 128 40 32 c91 73 162 205 195 361 20 93 19 334 0 465
-59 391 -267 584 -610 562 -315 -20 -486 -235 -526 -662 -30 -319 27 -540 178
-695 l73 -74 0 -122 0 -121 -107 -28 c-189 -49 -337 -122 -427 -210 -88 -87
-160 -239 -230 -485 -52 -184 -91 -380 -79 -399 6 -10 30 -18 64 -21 l54 -5 5
-180 c6 -201 12 -224 85 -297 46 -45 88 -66 165 -80 l60 -12 0 -377 c0 -364 1
-379 19 -389 13 -7 687 -10 2105 -10 1882 0 2086 2 2100 16 14 13 16 63 16
389 l0 373 48 7 c100 14 189 75 235 160 20 36 23 60 27 220 l5 180 52 3 c74 4
79 14 59 120 -47 240 -117 473 -186 617 -46 96 -130 193 -211 246 -94 60 -244
116 -411 153 l-28 6 0 123 0 123 73 74 c151 154 207 372 178 691 -40 431 -209
646 -526 666 -296 19 -493 -124 -578 -417 -37 -126 -50 -256 -45 -442 4 -154
6 -168 39 -263 40 -116 92 -199 160 -258 l49 -42 0 -127 0 -128 -27 -6 c-16
-3 -52 -12 -81 -19 l-54 -13 -39 39 c-100 100 -286 185 -511 233 l-28 6 0 121
0 120 69 68 c87 86 143 196 173 338 17 84 19 122 15 268 -11 317 -77 513 -218
639 -119 107 -314 150 -495 111z m247 -79 c143 -31 233 -103 298 -240 68 -141
98 -328 88 -541 -10 -208 -62 -340 -175 -447 -74 -69 -176 -122 -264 -138
-118 -22 -266 32 -380 138 -114 107 -166 240 -175 447 -6 129 8 290 33 395 23
95 86 220 138 273 101 104 270 148 437 113z m-1372 -241 c133 -32 222 -107
287 -240 54 -113 74 -221 81 -430 5 -160 3 -190 -15 -266 -31 -129 -65 -193
-146 -275 -100 -100 -198 -148 -313 -153 -105 -4 -172 16 -270 82 -85 56 -133
110 -175 191 -64 127 -86 284 -69 497 19 234 68 376 166 478 108 113 279 157
454 116z m2751 5 c182 -35 303 -164 360 -384 25 -98 44 -326 36 -427 -13 -155
-65 -298 -140 -386 -49 -56 -168 -135 -239 -157 -42 -13 -80 -17 -140 -15 -72
4 -93 9 -161 42 -219 109 -316 293 -316 602 0 286 54 481 168 607 92 101 267
149 432 118z m-1654 -1187 c98 -38 229 -37 328 1 37 14 70 26 72 26 2 0 4 -49
4 -110 l0 -109 -117 -195 c-65 -108 -120 -195 -123 -195 -3 0 -58 87 -122 195
l-118 195 0 109 c0 61 2 110 4 110 2 0 35 -12 72 -27z m-1306 -259 c85 -17
188 -6 267 31 l53 24 0 -116 0 -116 -107 -176 c-58 -97 -112 -184 -119 -194
-10 -16 -26 5 -133 180 l-121 198 0 112 0 112 45 -20 c25 -11 77 -27 115 -35z
m2688 22 c24 -9 74 -21 113 -26 79 -11 173 3 254 39 l45 20 0 -111 0 -111
-116 -191 c-64 -105 -119 -194 -123 -198 -3 -4 -59 80 -124 187 l-117 194 0
117 c0 92 3 114 13 107 6 -5 31 -17 55 -27z m-1383 -236 c125 -208 141 -230
165 -230 24 0 40 22 165 230 131 219 139 229 164 224 247 -56 399 -128 492
-232 78 -88 161 -298 225 -570 18 -81 34 -153 34 -159 0 -10 -50 -13 -216 -13
l-215 0 -26 31 c-15 17 -44 42 -65 55 l-38 24 1 129 c1 71 -2 134 -6 140 -8
15 -48 14 -63 -1 -8 -8 -12 -53 -12 -135 0 -68 -3 -123 -7 -123 -4 0 -103 -23
-220 -51 l-214 -51 -213 51 c-117 28 -216 51 -219 51 -4 0 -7 56 -7 124 0 133
-6 151 -52 144 -23 -3 -23 -4 -29 -193 -3 -104 -6 -191 -7 -192 -1 -2 -126 -3
-278 -3 l-276 0 7 40 c4 22 21 97 38 167 l32 128 65 1 c74 2 133 21 202 66
148 95 260 322 230 465 -6 26 -7 51 -3 56 6 6 180 55 202 57 3 0 68 -103 144
-230z m-1386 -240 c117 -194 140 -225 162 -228 25 -3 36 13 165 228 138 229
139 230 169 224 77 -15 106 -26 101 -37 -2 -7 -23 -54 -45 -105 -69 -155 -176
-562 -169 -637 3 -29 5 -30 61 -33 56 -3 57 -4 57 -32 0 -22 -5 -31 -22 -35
-13 -3 -88 -21 -168 -40 l-145 -34 -222 52 -223 52 0 120 c0 66 -4 126 -9 133
-5 8 -21 12 -37 10 l-29 -3 -3 -192 -2 -193 -280 0 c-154 0 -280 3 -280 8 0
13 60 266 71 298 10 32 11 32 87 35 104 5 175 40 263 129 114 115 177 281 153
400 -8 36 -8 53 0 57 17 11 179 52 195 50 8 -1 76 -103 150 -227z m2774 -1
c130 -215 140 -230 165 -227 23 3 45 32 159 222 73 120 136 223 141 228 13 13
198 -35 293 -76 206 -89 282 -180 373 -444 30 -88 88 -307 111 -419 l7 -33
-281 0 -281 0 -2 193 c-3 192 -3 192 -26 195 -46 7 -52 -11 -52 -142 l0 -121
-222 -52 -223 -53 -145 35 c-80 19 -155 37 -167 40 -18 4 -23 13 -23 35 0 28
1 29 58 32 55 3 57 4 60 33 3 34 -45 260 -85 400 -29 103 -81 243 -113 305
-12 23 -19 44 -17 47 7 6 97 31 117 32 9 1 67 -86 153 -230z m-1448 -521 l40
-11 -110 -28 c-152 -39 -145 -41 -145 30 l0 59 88 -20 c48 -10 105 -24 127
-30z m750 23 c17 -9 40 -37 53 -61 37 -72 19 -141 -50 -193 -17 -13 -239 -72
-645 -173 -340 -84 -627 -153 -638 -154 -73 -1 -172 69 -197 138 -9 24 -13 90
-13 192 l0 155 220 0 220 0 3 -37 c2 -20 9 -42 17 -48 13 -10 209 33 920 203
29 7 75 -2 110 -22z m440 -241 c0 -179 -6 -210 -52 -261 -85 -93 -110 -94
-438 -14 -149 37 -277 69 -285 72 -8 3 62 25 155 48 199 50 211 54 254 90 43
37 71 96 78 162 l6 54 141 -3 141 -3 0 -145z m-2678 5 c59 -14 115 -28 123
-32 13 -5 -191 -61 -227 -63 -9 0 -13 18 -13 60 0 33 2 60 4 60 2 0 53 -11
113 -25z m3543 -35 c0 -42 -4 -60 -12 -60 -37 2 -241 58 -228 63 17 8 209 54
228 56 8 1 12 -17 12 -59z m-2851 -216 c12 -26 19 -49 17 -51 -2 -2 -248 -65
-547 -140 -341 -85 -563 -136 -595 -136 -66 0 -128 33 -169 91 l-30 44 -3 174
-3 174 220 0 221 0 0 -40 c0 -28 5 -42 18 -49 14 -7 126 16 428 87 l409 98 7
-102 c4 -70 13 -117 27 -150z m2500 151 c313 -74 406 -93 417 -84 8 6 14 29
14 50 l0 39 221 0 220 0 -3 -174 -3 -174 -30 -44 c-41 -58 -103 -91 -169 -90
-42 0 -1130 263 -1143 275 -2 2 6 26 18 52 15 35 23 77 27 151 3 69 8 101 16
98 6 -2 193 -47 415 -99z m-1154 -226 l325 -81 0 -189 c0 -104 -2 -189 -5
-189 -14 0 -192 95 -290 155 -184 112 -476 337 -460 353 6 6 76 28 98 31 4 1
153 -36 332 -80z m-447 -55 c188 -165 413 -317 639 -432 l133 -67 0 -108 c0
-129 20 -127 -191 -21 -246 124 -451 261 -654 435 -99 85 -231 216 -224 222 7
7 163 45 187 46 15 1 52 -25 110 -75z m-660 -41 l52 -6 0 -63 c0 -48 -4 -64
-14 -64 -13 0 -410 94 -451 107 -13 4 30 19 124 42 l144 37 46 -23 c26 -13 70
-26 99 -30z m1867 13 c85 -21 123 -35 110 -39 -44 -14 -437 -107 -450 -107
-12 0 -15 14 -15 64 l0 63 50 6 c27 3 69 15 92 26 57 26 63 26 213 -13z
m-2140 -157 l325 -81 0 -158 c0 -86 -3 -159 -6 -163 -18 -18 -362 150 -515
252 -116 77 -254 190 -244 200 7 6 81 28 103 30 7 1 158 -36 337 -80z m2764 2
c177 -43 324 -81 327 -83 2 -3 3 -77 2 -166 l-3 -160 -85 34 c-142 57 -304
142 -421 220 -118 79 -262 194 -253 203 6 6 81 28 100 30 7 1 156 -34 333 -78z
m-3019 -210 c133 -89 297 -175 460 -242 l115 -46 3 -77 c2 -42 0 -76 -3 -76
-18 0 -239 92 -362 151 -246 117 -466 256 -635 403 l-82 70 105 26 104 26 90
-79 c50 -43 142 -113 205 -156z m2547 177 c191 -173 467 -339 726 -434 l77
-29 0 -78 c0 -71 -2 -78 -17 -73 -351 133 -626 277 -858 451 -92 69 -199 164
-193 170 2 2 46 15 98 28 52 14 96 26 97 26 2 1 33 -27 70 -61z"/>
                    </g>
                  </svg>